HIERARCHY
ROOT Hips
{
  OFFSET 51.1162 95.6751 9.19283
  CHANNELS 6 Xposition Yposition Zposition Zrotation Xrotation Yrotation
  JOINT spine
  {
    OFFSET 0 7.96568 0.458067
    CHANNELS 3 Zrotation Xrotation Yrotation
    JOINT spine1
    {
      OFFSET 0 10.2431 0
      CHANNELS 3 Zrotation Xrotation Yrotation
      JOINT spine2
      {
        OFFSET 0 9.81475 0
        CHANNELS 3 Zrotation Xrotation Yrotation
        JOINT Neck
        {
          OFFSET 0 25.1986 1.20138
          CHANNELS 3 Zrotation Xrotation Yrotation
          JOINT Head
          {
            OFFSET 0 7.61315 0
            CHANNELS 3 Zrotation Xrotation Yrotation
            End Site
            {
              OFFSET 0 18.4281 -6.07733
            }
          }
        }
        JOINT RightShoulder
        {
          OFFSET -4.1327 10.5992 -0.575451
          CHANNELS 3 Zrotation Xrotation Yrotation
          JOINT RightArm
          {
            OFFSET 0 13.9018 0
            CHANNELS 3 Zrotation Xrotation Yrotation
            JOINT RightArmRoll
            {
              OFFSET 0 7.01788 0
              CHANNELS 3 Zrotation Xrotation Yrotation
              JOINT RightForeArm
              {
                OFFSET 0 20.4406 0
                CHANNELS 3 Zrotation Xrotation Yrotation
                JOINT RightForeArmRoll
                {
                  OFFSET 0 7.87515 0
                  CHANNELS 3 Zrotation Xrotation Yrotation
                  JOINT RightHand
                  {
                    OFFSET 0 15.8037 0
                    CHANNELS 3 Zrotation Xrotation Yrotation
                    End Site
                    {
                      OFFSET 0 0 0
                    }
                  }
                }
              }
            }
          }
        }
        JOINT LeftShoulder
        {
          OFFSET 4.1327 10.5992 -0.575451
          CHANNELS 3 Zrotation Xrotation Yrotation
          JOINT LeftArm
          {
            OFFSET 0 13.9018 0
            CHANNELS 3 Zrotation Xrotation Yrotation
            JOINT LeftArmRoll
            {
              OFFSET 0 7.01788 0
              CHANNELS 3 Zrotation Xrotation Yrotation
              JOINT LeftForeArm
              {
                OFFSET 0 20.4406 0
                CHANNELS 3 Zrotation Xrotation Yrotation
                JOINT LeftForeArmRoll
                {
                  OFFSET 0 7.87515 0
                  CHANNELS 3 Zrotation Xrotation Yrotation
                  JOINT LeftHand
                  {
                    OFFSET 0 15.8037 0
                    CHANNELS 3 Zrotation Xrotation Yrotation
                    End Site
                    {
                      OFFSET 0 0 0
                    }
                  }
                }
              }
            }
          }
        }
      }
    }
  }
  JOINT RightUpLeg
  {
    OFFSET -7.06047 -1.2947 -1.08609
    CHANNELS 3 Zrotation Xrotation Yrotation
    JOINT RightUpLegRoll
    {
      OFFSET 0 18.5308 0
      CHANNELS 3 Zrotation Xrotation Yrotation
      JOINT RightLeg
      {
        OFFSET 0 -22.9476 0
        CHANNELS 3 Zrotation Xrotation Yrotation
        JOINT RightLegRoll
        {
          OFFSET 0 23.0226 0
          CHANNELS 3 Zrotation Xrotation Yrotation
          JOINT RightFoot
          {
            OFFSET 0 19.1625 0
            CHANNELS 3 Zrotation Xrotation Yrotation
            JOINT RightToeBase
            {
              OFFSET 0 16.0188 0
              CHANNELS 3 Zrotation Xrotation Yrotation
              End Site
              {
                OFFSET 0.00678979 7.75781 -0.894206
              }
            }
          }
        }
      }
    }
  }
  JOINT LeftUpLeg
  {
    OFFSET 7.06047 -1.2947 -1.08609
    CHANNELS 3 Zrotation Xrotation Yrotation
    JOINT LeftUpLegRoll
    {
      OFFSET 0 18.5309 0
      CHANNELS 3 Zrotation Xrotation Yrotation
      JOINT LeftLeg
      {
        OFFSET 0 22.9475 0
        CHANNELS 3 Zrotation Xrotation Yrotation
        JOINT LeftLegRoll
        {
          OFFSET 0 23.2355 0
          CHANNELS 3 Zrotation Xrotation Yrotation
          JOINT LeftFoot
          {
            OFFSET 0 18.9496 0
            CHANNELS 3 Zrotation Xrotation Yrotation
            JOINT LeftToeBase
            {
              OFFSET 0 16.0188 0
              CHANNELS 3 Zrotation Xrotation Yrotation
              End Site
              {
                OFFSET -0.0304289 7.75782 -0.894207
              }
            }
          }
        }
      }
    }
  }
}
MOTION
Frames: 12
Frame Time: 0.00208333
52.0276 95.7257 9.22 -0.584613 -1.14944 0.475303 0.343673 -2.14603 0.01963 0.694962 -0.288177 0.0211825 0.69489 1.35683 0.00956171 -5.09938 21.4189 0.839428 5.02781 -2.67957 -0.249107 69.5955 3.08899 0.226476 106.813 22.0047 19.3926 8.15381e-007 1.44248e-006 3.4592e-007 1.77716 0.0199578 -0.440682 -1.21243e-005 6.17024e-007 -3.10654 8.0301 -4.9514 0.697649 -77.1831 0.282951 1.99632 -102.32 21.5079 -21.374 7.95139e-015 3.18055e-015 3.18055e-015 0.30397 0.00266201 -0.333971 4.44045e-006 1.70644e-006 3.01628 -8.03026 -4.95136 -0.697643 176.48 -1.56566 -2.6806 180 7.01528e-015 178.844 177.89 4.66007 179.57 1.13523e-006 -4.47681e-006 0.0714243 -19.1894 68.3928 19.8693 8.13649 25.2327 -3.48773 -173.507 -0.179733 0.257795 4.54188e-006 -4.6773e-006 -1.13331 -1.91231 -5.36617 0.121507 -3.98827e-006 -1.60974e-006 -0.0368882 18.5328 68.3973 -19.8628 -8.13649 25.2327 3.48774 
52.0282 95.7278 9.21195 -0.585467 -1.14833 0.474159 0.343903 -2.14863 0.0195383 0.693355 -0.292162 0.0194698 0.693298 1.35285 0.00788203 -5.07913 21.4361 0.838755 5.01142 -2.67571 -0.245867 69.6087 3.08671 0.223411 106.785 22.0122 19.4059 8.15381e-007 1.44248e-006 3.4592e-007 1.77333 0.0199578 -0.440702 -1.21243e-005 6.17024e-007 -3.10654 8.0301 -4.9514 0.697649 -77.1676 0.284996 1.99384 -102.315 21.4574 -21.3307 3.18055e-015 3.18055e-015 -0 0.226188 -0.000552632 -0.3319 4.44045e-006 1.70644e-006 3.01591 -8.03026 -4.95136 -0.697643 176.482 -1.56585 -2.68172 180 7.01528e-015 178.844 177.89 4.66024 179.57 1.13523e-006 -4.47681e-006 0.0714243 -19.1904 68.3939 19.8704 8.13649 25.2327 -3.48773 -173.505 -0.183366 0.256487 4.54188e-006 -4.6773e-006 -1.13328 -1.91291 -5.36056 0.121599 -3.98827e-006 -1.60974e-006 -0.0368882 18.5309 68.3954 -19.8612 -8.13649 25.2327 3.48774 
52.0242 95.7277 9.21569 -0.586281 -1.14712 0.473094 0.344154 -2.15126 0.0194553 0.691668 -0.296132 0.0177022 0.691627 1.34888 0.00614922 -5.05873 21.453 0.838107 4.99503 -2.67169 -0.242557 69.6222 3.08452 0.220338 106.758 22.0198 19.4199 8.15381e-007 1.44248e-006 3.4592e-007 1.76862 0.0199579 -0.440732 -1.21243e-005 6.17024e-007 -3.10655 8.0301 -4.9514 0.697649 -77.1518 0.286866 1.9914 -102.31 21.4072 -21.2869 1.11319e-014 1.27222e-014 -3.18055e-015 0.148435 -0.0054976 -0.329776 4.44045e-006 1.70644e-006 3.01555 -8.03026 -4.95136 -0.697643 176.484 -1.56587 -2.68295 180 7.01528e-015 178.844 177.89 4.66051 179.57 1.13523e-006 -4.47681e-006 0.0714243 -19.1915 68.3952 19.8716 8.13649 25.2327 -3.48773 -173.504 -0.187029 0.255166 4.54188e-006 -4.6773e-006 -1.13325 -1.91354 -5.3546 0.121695 -3.98827e-006 -1.60974e-006 -0.0368882 18.5287 68.3933 -19.8594 -8.13649 25.2327 3.48774 
52.0238 95.727 9.22622 -0.587069 -1.14585 0.472086 0.34442 -2.15391 0.0193785 0.689926 -0.300092 0.0158963 0.689901 1.34492 0.00437923 -5.03823 21.4698 0.837476 4.97862 -2.66756 -0.239197 69.6359 3.08239 0.217261 106.731 22.0275 19.4345 8.15381e-007 1.44248e-006 3.4592e-007 1.76328 0.0199579 -0.44077 -1.21243e-005 6.17024e-007 -3.10656 8.0301 -4.9514 0.697649 -77.1357 0.288613 1.98899 -102.306 21.3573 -21.2428 1.59028e-015 9.54166e-015 -3.18055e-015 0.0707009 -0.0116538 -0.327613 4.44045e-006 1.70644e-006 3.01518 -8.03026 -4.95136 -0.697643 176.486 -1.56576 -2.68426 180 7.01528e-015 178.844 177.89 4.66088 179.57 1.13523e-006 -4.47681e-006 0.0714243 -19.1927 68.3965 19.8728 8.13649 25.2327 -3.48773 -173.502 -0.190714 0.253834 4.54188e-006 -4.6773e-006 -1.13322 -1.9142 -5.3484 0.121794 -3.98827e-006 -1.60974e-006 -0.0368882 18.5264 68.3911 -19.8575 -8.13649 25.2327 3.48774 
52.0215 95.7277 9.2257 -0.58784 -1.14455 0.47111 0.344693 -2.15658 0.0193053 0.688152 -0.304046 0.0140684 0.688143 1.34096 0.002588 -5.01766 21.4865 0.836855 4.96221 -2.66337 -0.235808 69.6498 3.08029 0.214182 106.704 22.0352 19.4492 8.15381e-007 1.44248e-006 3.4592e-007 1.75759 0.019958 -0.440812 -1.21243e-005 6.17024e-007 -3.10658 8.0301 -4.9514 0.697649 -77.1195 0.290291 1.98659 -102.303 21.3075 -21.1986 1.59028e-015 -3.18055e-015 -3.18055e-015 -0.00702099 -0.0185021 -0.325429 4.44045e-006 1.70644e-006 3.01481 -8.03026 -4.95136 -0.697643 176.488 -1.56558 -2.68563 180 7.01528e-015 178.844 177.89 4.66131 179.57 1.13523e-006 -4.47681e-006 0.0714243 -19.1939 68.3979 19.8741 8.13649 25.2327 -3.48773 -173.5 -0.19441 0.252497 4.54188e-006 -4.6773e-006 -1.13318 -1.91487 -5.34206 0.121895 -3.98827e-006 -1.60974e-006 -0.0368882 18.5239 68.3887 -19.8555 -8.13649 25.2327 3.48774 
52.02 95.7259 9.2331 -0.588608 -1.14323 0.470141 0.344969 -2.15924 0.0192329 0.68637 -0.307999 0.012235 0.686377 1.33701 0.000791459 -4.99708 21.5032 0.836237 4.94579 -2.65917 -0.232412 69.6637 3.0782 0.211101 106.678 22.0429 19.4641 8.15381e-007 1.44248e-006 3.4592e-007 1.75181 0.0199581 -0.440855 -1.21243e-005 6.17024e-007 -3.10659 8.0301 -4.9514 0.697649 -77.1033 0.291951 1.98419 -102.3 21.2577 -21.1543 4.77083e-015 6.36111e-015 -0 -0.0847396 -0.0255235 -0.323239 4.44045e-006 1.70644e-006 3.01444 -8.03026 -4.95136 -0.697643 176.49 -1.56538 -2.687 180 7.01528e-015 178.844 177.89 4.66173 179.57 1.13523e-006 -4.47681e-006 0.0714243 -19.1951 68.3992 19.8754 8.13649 25.2327 -3.48773 -173.498 -0.19811 0.251158 4.54188e-006 -4.6773e-006 -1.13315 -1.91554 -5.33569 0.121996 -3.98827e-006 -1.60974e-006 -0.0368882 18.5215 68.3864 -19.8535 -8.13649 25.2327 3.48774 
52.019 95.7269 9.23517 -0.589384 -1.14193 0.469157 0.345241 -2.16191 0.0191588 0.684603 -0.311954 0.0104126 0.684626 1.33306 -0.00099445 -4.97653 21.52 0.835614 4.92938 -2.655 -0.229031 69.6775 3.0761 0.208022 106.651 22.0506 19.4788 8.15381e-007 1.44248e-006 3.4592e-007 1.74621 0.0199581 -0.440896 -1.21243e-005 6.17024e-007 -3.1066 8.0301 -4.9514 0.697649 -77.0871 0.293646 1.98179 -102.296 21.2078 -21.1102 3.18055e-015 3.18055e-015 -0 -0.162463 -0.0321988 -0.32106 4.44045e-006 1.70644e-006 3.01407 -8.03026 -4.95136 -0.697643 176.493 -1.56522 -2.68835 180 7.01528e-015 178.844 177.89 4.66215 179.571 1.13523e-006 -4.47681e-006 0.0714243 -19.1963 68.4006 19.8767 8.13649 25.2327 -3.48773 -173.496 -0.201803 0.249823 4.54188e-006 -4.6773e-006 -1.13311 -1.91621 -5.32939 0.122097 -3.98827e-006 -1.60974e-006 -0.0368882 18.5191 68.3841 -19.8515 -8.13649 25.2327 3.48774 
52.0259 95.7248 9.23021 -0.590179 -1.14068 0.468133 0.345502 -2.16455 0.0190802 0.682876 -0.315917 0.00861764 0.682915 1.32909 -0.00275379 -4.95605 21.5368 0.834978 4.91297 -2.6509 -0.225685 69.6911 3.07395 0.204947 106.624 22.0582 19.4932 8.15381e-007 1.44248e-006 3.4592e-007 1.74105 0.0199582 -0.440932 -1.21243e-005 6.17024e-007 -3.10662 8.0301 -4.9514 0.697649 -77.0712 0.295429 1.97937 -102.292 21.1577 -21.0664 3.02153e-014 2.22639e-014 1.27222e-014 -0.240201 -0.0380089 -0.318909 4.44045e-006 1.70644e-006 3.0137 -8.03026 -4.95136 -0.697643 176.495 -1.56515 -2.68964 180 7.01528e-015 178.844 177.89 4.6625 179.571 1.13523e-006 -4.47681e-006 0.0714243 -19.1974 68.4019 19.8779 8.13649 25.2327 -3.48773 -173.494 -0.205482 0.248494 4.54188e-006 -4.6773e-006 -1.13308 -1.91686 -5.32326 0.122195 -3.98827e-006 -1.60974e-006 -0.0368882 18.5168 68.3819 -19.8496 -8.13649 25.2327 3.48774 
52.0234 95.7254 9.23544 -0.591005 -1.13951 0.467044 0.345746 -2.16717 0.0189946 0.681211 -0.319891 0.00686653 0.681266 1.32512 -0.00447062 -4.93569 21.5538 0.834322 4.89658 -2.64693 -0.222396 69.7045 3.07173 0.201876 106.597 22.0658 19.507 8.15381e-007 1.44248e-006 3.4592e-007 1.7366 0.0199582 -0.440959 -1.21243e-005 6.17024e-007 -3.10662 8.0301 -4.9514 0.697649 -77.0554 0.297351 1.97692 -102.286 21.1072 -21.0231 4.77083e-015 3.18055e-015 -0 -0.31796 -0.0424348 -0.3168 4.44045e-006 1.70644e-006 3.01333 -8.03026 -4.95136 -0.697643 176.497 -1.56522 -2.69084 180 7.01528e-015 178.844 177.889 4.66274 179.571 1.13523e-006 -4.47681e-006 0.0714243 -19.1985 68.4031 19.8791 8.13649 25.2327 -3.48773 -173.493 -0.209136 0.247176 4.54188e-006 -4.6773e-006 -1.13305 -1.91748 -5.3174 0.12229 -3.98827e-006 -1.60974e-006 -0.0368882 18.5147 68.3798 -19.8479 -8.13649 25.2327 3.48774 
52.023 95.728 9.23683 -0.591873 -1.13843 0.465868 0.345968 -2.16975 0.0188994 0.679634 -0.323882 0.00517574 0.679704 1.32113 -0.00612901 -4.9155 21.571 0.833638 4.88019 -2.64312 -0.219185 69.7176 3.06942 0.198813 106.569 22.0732 19.5201 8.15381e-007 1.44248e-006 3.4592e-007 1.73314 0.0199583 -0.440974 -1.21243e-005 6.17024e-007 -3.10663 8.0301 -4.9514 0.697649 -77.0401 0.299466 1.97442 -102.28 21.0562 -20.9803 -7.95139e-015 6.36111e-015 -3.18055e-015 -0.395751 -0.0449573 -0.314752 4.44045e-006 1.70644e-006 3.01297 -8.03026 -4.95136 -0.697643 176.499 -1.56548 -2.69191 180 7.01528e-015 178.844 177.889 4.66285 179.571 1.13523e-006 -4.47681e-006 0.0714243 -19.1995 68.4043 19.8802 8.13649 25.2327 -3.48773 -173.491 -0.212756 0.245874 4.54188e-006 -4.6773e-006 -1.13303 -1.91806 -5.31192 0.12238 -3.98827e-006 -1.60974e-006 -0.0368882 18.5129 68.3781 -19.8463 -8.13649 25.2327 3.48774 
52.023 95.7263 9.23856 -0.592796 -1.13749 0.464581 0.34616 -2.17229 0.0187918 0.678168 -0.327892 0.00356174 0.678253 1.31712 -0.00771302 -4.89552 21.5885 0.832918 4.86382 -2.63953 -0.216074 69.7302 3.06699 0.19576 106.541 22.0805 19.5322 8.15381e-007 1.44248e-006 3.4592e-007 1.73092 0.0199583 -0.440975 -1.21243e-005 6.17024e-007 -3.10663 8.0301 -4.9514 0.697649 -77.0252 0.301825 1.97187 -102.271 21.0047 -20.9383 3.33958e-014 1.27222e-014 9.54166e-015 -0.473581 -0.0450574 -0.312779 4.44045e-006 1.70644e-006 3.01261 -8.03026 -4.95136 -0.697643 176.5 -1.566 -2.69281 180 7.01528e-015 178.844 177.889 4.66279 179.571 1.13523e-006 -4.47681e-006 0.0714243 -19.2004 68.4053 19.8811 8.13649 25.2327 -3.48773 -173.489 -0.216334 0.244591 4.54188e-006 -4.6773e-006 -1.13301 -1.9186 -5.30692 0.122463 -3.98827e-006 -1.60974e-006 -0.0368882 18.5115 68.3767 -19.8451 -8.13649 25.2327 3.48774 
52.0185 95.7274 9.2416 -0.593785 -1.13671 0.463157 0.346316 -2.17477 0.0186692 0.676836 -0.331928 0.00204097 0.676936 1.31308 -0.00920671 -4.8758 21.6063 0.832155 4.84747 -2.63619 -0.213084 69.7423 3.06442 0.192718 106.512 22.0876 19.5431 8.15381e-007 1.44248e-006 3.4592e-007 1.73021 0.0199583 -0.440957 -1.21243e-005 6.17024e-007 -3.10663 8.0301 -4.9514 0.697649 -77.0109 0.304481 1.96924 -102.261 20.9525 -20.8971 -7.15625e-015 3.18055e-015 -0 -0.551459 -0.0422159 -0.310899 4.44045e-006 1.70644e-006 3.01226 -8.03026 -4.95136 -0.697643 176.502 -1.56682 -2.69351 180 7.01528e-015 178.844 177.888 4.66251 179.571 1.13523e-006 -4.47681e-006 0.0714243 -19.2012 68.4062 19.882 8.13649 25.2327 -3.48773 -173.487 -0.219861 0.243333 4.54188e-006 -4.6773e-006 -1.133 -1.91906 -5.3025 0.12254 -3.98827e-006 -1.60974e-006 -0.0368882 18.5105 68.3756 -19.8441 -8.13649 25.2327 3.48774 
